<svg width="32" height="32" viewBox="0 0 32 32" fill="none" xmlns="http://www.w3.org/2000/svg">
<g id="Create_Report-Icn">
<path id="Vector" d="M18.1429 5C18.1429 3.89375 17.1214 3 15.8571 3C14.5929 3 13.5714 3.89375 13.5714 5V14H3.28571C2.02143 14 1 14.8938 1 16C1 17.1062 2.02143 18 3.28571 18H13.5714V27C13.5714 28.1063 14.5929 29 15.8571 29C17.1214 29 18.1429 28.1063 18.1429 27V18H28.4286C29.6929 18 30.7143 17.1062 30.7143 16C30.7143 14.8938 29.6929 14 28.4286 14H18.1429V5Z" fill="#0074A6"/>
</g>
</svg>
