<svg width="29" height="33" viewBox="0 0 29 33" fill="none" xmlns="http://www.w3.org/2000/svg">
<g id="Group">
<path id="Vector" fill-rule="evenodd" clip-rule="evenodd" d="M19.4917 0.5H3.93612C2.22501 0.5 0.840568 2.1 0.840568 4.05556L0.825012 28.9444C0.825012 30.9 2.20946 32.5 3.92057 32.5H25.7139C27.425 32.5 28.825 30.9 28.825 28.9444V11.1667L19.4917 0.5ZM6.11392 24.0789C6.11392 25.7632 7.04725 26.1842 8.60279 26.1842C9.84725 26.1842 10.7806 25.3421 10.7806 24.0789C10.7806 22.8158 10.0765 21.9737 8.44725 21.9737C6.89172 21.9737 6.11392 22.3947 6.11392 24.0789ZM6.11392 16.5C6.11392 18.1842 7.04725 18.6053 8.60279 18.6053C9.96221 18.6053 10.7806 17.7632 10.7806 16.5C10.7806 15.2368 9.84725 14.3947 8.60279 14.3947C7.04725 14.3947 6.11392 14.8158 6.11392 16.5ZM6.11392 9.76316C6.11392 11.0263 7.04725 11.8684 8.60279 11.8684C9.84725 11.8684 10.7806 11.0263 10.7806 9.76316C10.7806 8.56649 10.3139 7.70468 8.60279 7.65789C7.04725 7.70468 6.11392 8.24325 6.11392 9.76316ZM16.3806 2.18421V13.5526H19.4917H26.6473L16.3806 2.18421Z" fill="#414756"/>
</g>
</svg>
