<svg width="33" height="33" viewBox="0 0 33 33" fill="none" xmlns="http://www.w3.org/2000/svg">
<g id="Report-Icn" clip-path="url(#clip0_285_133)">
<path id="Vector" d="M3.92357 2C3.92357 1.16875 3.15928 0.5 2.20928 0.5C1.25928 0.5 0.494995 1.16875 0.494995 2V4.5V22.4062V25.5V31C0.494995 31.8312 1.25928 32.5 2.20928 32.5C3.15928 32.5 3.92357 31.8312 3.92357 31V24.75L9.65928 23.4937C12.595 22.85 15.7021 23.15 18.4093 24.3312C21.5664 25.7125 25.2307 25.8813 28.5307 24.7938L31.0093 23.9813C31.9021 23.6875 32.495 22.9438 32.495 22.1063V4.63125C32.495 3.19375 30.7664 2.25625 29.295 2.9L28.6093 3.2C25.3021 4.65 21.4093 4.65 18.1021 3.2C15.595 2.1 12.7164 1.825 9.995 2.41875L3.92357 3.75V2ZM3.92357 6.84375L10.8236 5.33125C12.7521 4.9125 14.7879 5.10625 16.5664 5.88125C20.4879 7.59375 25.045 7.7375 29.0664 6.30625V21.4188L27.3236 21.9875C24.9164 22.775 22.2379 22.6562 19.9379 21.65C16.495 20.1437 12.5593 19.7687 8.82357 20.5812L3.92357 21.6562V6.84375Z" fill="#414756"/>
</g>
<defs>
<clipPath id="clip0_285_133">
<rect width="32" height="32" fill="white" transform="translate(0.494995 0.5)"/>
</clipPath>
</defs>
</svg>
