<svg width="27" height="24" viewBox="0 0 27 24" fill="none" xmlns="http://www.w3.org/2000/svg">
<path id="Vector" d="M0.715271 2C0.715271 0.89375 1.55251 0 2.58881 0H25.0712C26.1075 0 26.9448 0.89375 26.9448 2C26.9448 3.10625 26.1075 4 25.0712 4H2.58881C1.55251 4 0.715271 3.10625 0.715271 2ZM0.715271 12C0.715271 10.8938 1.55251 10 2.58881 10H25.0712C26.1075 10 26.9448 10.8938 26.9448 12C26.9448 13.1062 26.1075 14 25.0712 14H2.58881C1.55251 14 0.715271 13.1062 0.715271 12ZM26.9448 22C26.9448 23.1063 26.1075 24 25.0712 24H2.58881C1.55251 24 0.715271 23.1063 0.715271 22C0.715271 20.8937 1.55251 20 2.58881 20H25.0712C26.1075 20 26.9448 20.8937 26.9448 22Z" fill="#414756"/>
</svg>
